<?xml version="1.0" encoding="UTF-8" standalone="no"?>
<!DOCTYPE svg PUBLIC "-//W3C//DTD SVG 1.1//EN"
 "http://www.w3.org/Graphics/SVG/1.1/DTD/svg11.dtd">
<!-- Generated by graphviz version 2.40.1 (20161225.0304)
 -->
<!-- Title: Mutect2 Pages: 1 -->
<svg width="2485pt" height="564pt"
 viewBox="0.00 0.00 2485.00 564.00" xmlns="http://www.w3.org/2000/svg" xmlns:xlink="http://www.w3.org/1999/xlink">
<g id="graph0" class="graph" transform="scale(1 1) rotate(0) translate(4 560)">
<title>Mutect2</title>
<polygon fill="#ffffff" stroke="transparent" points="-4,4 -4,-560 2481,-560 2481,4 -4,4"/>
<g id="clust1" class="cluster">
<title>cluster_2</title>
<polygon fill="#ffffff" stroke="#000000" stroke-dasharray="5,2" points="31,-296 31,-348 485,-348 485,-296 31,-296"/>
</g>
<g id="clust2" class="cluster">
<title>cluster_5</title>
<polygon fill="#ffffff" stroke="#000000" stroke-dasharray="5,2" points="769,-440 769,-492 1663,-492 1663,-440 769,-440"/>
</g>
<g id="clust3" class="cluster">
<title>cluster_6</title>
<polygon fill="#ffffff" stroke="#000000" stroke-dasharray="5,2" points="8,-8 8,-60 433,-60 433,-8 8,-8"/>
</g>
<g id="clust4" class="cluster">
<title>cluster_3</title>
<polygon fill="#ffffff" stroke="#000000" points="463,-368 463,-492 761,-492 761,-368 463,-368"/>
</g>
<g id="clust5" class="cluster">
<title>cluster_7</title>
<polygon fill="#ffffff" stroke="#000000" stroke-dasharray="5,2" points="871,-224 871,-356 1945,-356 1945,-224 871,-224"/>
</g>
<g id="clust6" class="cluster">
<title>cluster_8</title>
<polygon fill="#ffffff" stroke="#000000" stroke-dasharray="5,2" points="1461,-296 1461,-348 1937,-348 1937,-296 1461,-296"/>
</g>
<g id="clust7" class="cluster">
<title>cluster_1</title>
<polygon fill="#ffffff" stroke="#000000" stroke-dasharray="5,2" points="1671,-440 1671,-492 2469,-492 2469,-440 1671,-440"/>
</g>
<g id="clust8" class="cluster">
<title>cluster_4</title>
<polygon fill="#ffffff" stroke="#000000" stroke-dasharray="5,2" points="385,-80 385,-132 997,-132 997,-80 385,-80"/>
</g>
<g id="clust9" class="cluster">
<title>cluster_0</title>
<polygon fill="#ffffff" stroke="#000000" stroke-dasharray="5,2" points="395,-224 395,-276 863,-276 863,-224 395,-224"/>
</g>
<!-- CALL_SplitIntervals -->
<g id="node1" class="node">
<title>CALL_SplitIntervals</title>
<ellipse fill="none" stroke="#000000" cx="612" cy="-538" rx="73.387" ry="18"/>
<text text-anchor="middle" x="612" y="-534.3" font-family="Times,serif" font-size="14.00" fill="#000000">call SplitIntervals</text>
</g>
<!-- SCATTER_3_VARIABLE_subintervals -->
<g id="node2" class="node">
<title>SCATTER_3_VARIABLE_subintervals</title>
<polygon fill="none" stroke="#000000" points="753.1838,-466 682.5919,-484 541.4081,-484 470.8162,-466 541.4081,-448 682.5919,-448 753.1838,-466"/>
<text text-anchor="middle" x="612" y="-462.3" font-family="Times,serif" font-size="14.00" fill="#000000">scatter over File as subintervals</text>
</g>
<!-- CALL_SplitIntervals&#45;&gt;SCATTER_3_VARIABLE_subintervals -->
<g id="edge1" class="edge">
<title>CALL_SplitIntervals&#45;&gt;SCATTER_3_VARIABLE_subintervals</title>
<path fill="none" stroke="#000000" d="M612,-519.8314C612,-512.131 612,-502.9743 612,-494.4166"/>
<polygon fill="#000000" stroke="#000000" points="615.5001,-494.4132 612,-484.4133 608.5001,-494.4133 615.5001,-494.4132"/>
</g>
<!-- CALL_M2 -->
<g id="node12" class="node">
<title>CALL_M2</title>
<ellipse fill="none" stroke="#000000" cx="715" cy="-394" rx="38.1938" ry="18"/>
<text text-anchor="middle" x="715" y="-390.3" font-family="Times,serif" font-size="14.00" fill="#000000">call M2</text>
</g>
<!-- SCATTER_3_VARIABLE_subintervals&#45;&gt;CALL_M2 -->
<g id="edge22" class="edge">
<title>SCATTER_3_VARIABLE_subintervals&#45;&gt;CALL_M2</title>
<path fill="none" stroke="#000000" d="M637.9912,-447.8314C652.3389,-437.802 670.2203,-425.3023 685.1401,-414.873"/>
<polygon fill="#000000" stroke="#000000" points="687.3424,-417.6039 693.5332,-409.0059 683.3319,-411.8666 687.3424,-417.6039"/>
</g>
<!-- CALL_MergeTumorPileups -->
<g id="node3" class="node">
<title>CALL_MergeTumorPileups</title>
<ellipse fill="none" stroke="#000000" cx="1352" cy="-322" rx="99.3824" ry="18"/>
<text text-anchor="middle" x="1352" y="-318.3" font-family="Times,serif" font-size="14.00" fill="#000000">call MergeTumorPileups</text>
</g>
<!-- CALL_CalculateContamination -->
<g id="node4" class="node">
<title>CALL_CalculateContamination</title>
<ellipse fill="none" stroke="#000000" cx="1352" cy="-250" rx="111.5806" ry="18"/>
<text text-anchor="middle" x="1352" y="-246.3" font-family="Times,serif" font-size="14.00" fill="#000000">call CalculateContamination</text>
</g>
<!-- CALL_MergeTumorPileups&#45;&gt;CALL_CalculateContamination -->
<g id="edge2" class="edge">
<title>CALL_MergeTumorPileups&#45;&gt;CALL_CalculateContamination</title>
<path fill="none" stroke="#000000" d="M1352,-303.8314C1352,-296.131 1352,-286.9743 1352,-278.4166"/>
<polygon fill="#000000" stroke="#000000" points="1355.5001,-278.4132 1352,-268.4133 1348.5001,-278.4133 1355.5001,-278.4132"/>
</g>
<!-- CALL_Filter -->
<g id="node9" class="node">
<title>CALL_Filter</title>
<ellipse fill="none" stroke="#000000" cx="372" cy="-178" rx="44.6926" ry="18"/>
<text text-anchor="middle" x="372" y="-174.3" font-family="Times,serif" font-size="14.00" fill="#000000">call Filter</text>
</g>
<!-- CALL_CalculateContamination&#45;&gt;CALL_Filter -->
<g id="edge13" class="edge">
<title>CALL_CalculateContamination&#45;&gt;CALL_Filter</title>
<path fill="none" stroke="#000000" d="M1249.8962,-242.4985C1043.8282,-227.3588 584.4063,-193.6054 426.5191,-182.0055"/>
<polygon fill="#000000" stroke="#000000" points="426.3497,-178.4837 416.1201,-181.2415 425.8367,-185.4649 426.3497,-178.4837"/>
</g>
<!-- CALL_MergeNormalPileups -->
<g id="node5" class="node">
<title>CALL_MergeNormalPileups</title>
<ellipse fill="none" stroke="#000000" cx="1572" cy="-322" rx="102.8821" ry="18"/>
<text text-anchor="middle" x="1572" y="-318.3" font-family="Times,serif" font-size="14.00" fill="#000000">call MergeNormalPileups</text>
</g>
<!-- CALL_MergeNormalPileups&#45;&gt;CALL_CalculateContamination -->
<g id="edge3" class="edge">
<title>CALL_MergeNormalPileups&#45;&gt;CALL_CalculateContamination</title>
<path fill="none" stroke="#000000" d="M1523.4477,-306.1102C1490.3678,-295.284 1446.3717,-280.8853 1411.2308,-269.3846"/>
<polygon fill="#000000" stroke="#000000" points="1412.1631,-266.0071 1401.5705,-266.2231 1409.9858,-272.6599 1412.1631,-266.0071"/>
</g>
<!-- CALL_TumorCramToBam -->
<g id="node6" class="node">
<title>CALL_TumorCramToBam</title>
<ellipse fill="none" stroke="#000000" cx="2364" cy="-466" rx="96.6831" ry="18"/>
<text text-anchor="middle" x="2364" y="-462.3" font-family="Times,serif" font-size="14.00" fill="#000000">call TumorCramToBam</text>
</g>
<!-- CALL_FilterAlignmentArtifacts -->
<g id="node7" class="node">
<title>CALL_FilterAlignmentArtifacts</title>
<ellipse fill="none" stroke="#000000" cx="875" cy="-106" rx="113.9803" ry="18"/>
<text text-anchor="middle" x="875" y="-102.3" font-family="Times,serif" font-size="14.00" fill="#000000">call FilterAlignmentArtifacts</text>
</g>
<!-- CALL_TumorCramToBam&#45;&gt;CALL_FilterAlignmentArtifacts -->
<g id="edge4" class="edge">
<title>CALL_TumorCramToBam&#45;&gt;CALL_FilterAlignmentArtifacts</title>
<path fill="none" stroke="#000000" d="M2300.0658,-452.4773C2235.7403,-434.6805 2146,-396.5017 2146,-322 2146,-322 2146,-322 2146,-250 2146,-135.3171 1318.4436,-111.9528 998.8607,-107.2058"/>
<polygon fill="#000000" stroke="#000000" points="998.6809,-103.7029 988.6313,-107.0577 998.5795,-110.7022 998.6809,-103.7029"/>
</g>
<!-- CALL_TumorCramToBam&#45;&gt;CALL_M2 -->
<g id="edge19" class="edge">
<title>CALL_TumorCramToBam&#45;&gt;CALL_M2</title>
<path fill="none" stroke="#000000" d="M2311.5821,-450.8256C2294.6285,-446.5433 2275.6489,-442.4002 2258,-440 2107.14,-419.4833 1008.3594,-399.1458 763.348,-394.8346"/>
<polygon fill="#000000" stroke="#000000" points="763.384,-391.3348 753.3241,-394.6588 763.2611,-398.3338 763.384,-391.3348"/>
</g>
<!-- CALL_Funcotate -->
<g id="node15" class="node">
<title>CALL_Funcotate</title>
<ellipse fill="none" stroke="#000000" cx="365" cy="-34" rx="60.3893" ry="18"/>
<text text-anchor="middle" x="365" y="-30.3" font-family="Times,serif" font-size="14.00" fill="#000000">call Funcotate</text>
</g>
<!-- CALL_FilterAlignmentArtifacts&#45;&gt;CALL_Funcotate -->
<g id="edge15" class="edge">
<title>CALL_FilterAlignmentArtifacts&#45;&gt;CALL_Funcotate</title>
<path fill="none" stroke="#000000" d="M810.0953,-91.1392C791.4078,-87.1709 770.9513,-83.1228 752,-80 640.8286,-61.6813 510.5371,-47.7307 433.0396,-40.2166"/>
<polygon fill="#000000" stroke="#000000" points="433.2163,-36.7175 422.927,-39.2436 432.5458,-43.6854 433.2163,-36.7175"/>
</g>
<!-- CALL_MergeVCFs -->
<g id="node8" class="node">
<title>CALL_MergeVCFs</title>
<ellipse fill="none" stroke="#000000" cx="715" cy="-322" rx="69.5877" ry="18"/>
<text text-anchor="middle" x="715" y="-318.3" font-family="Times,serif" font-size="14.00" fill="#000000">call MergeVCFs</text>
</g>
<!-- CALL_MergeVCFs&#45;&gt;CALL_Filter -->
<g id="edge5" class="edge">
<title>CALL_MergeVCFs&#45;&gt;CALL_Filter</title>
<path fill="none" stroke="#000000" d="M675.7099,-307.0407C663.1861,-302.8235 649.1614,-298.6638 636,-296 582.4601,-285.1636 431.692,-312.4433 391,-276 371.9173,-258.9097 368.5367,-228.8836 369.0876,-206.5573"/>
<polygon fill="#000000" stroke="#000000" points="372.5965,-206.4749 369.6222,-196.3061 365.606,-206.1102 372.5965,-206.4749"/>
</g>
<!-- CALL_MergeBamOuts -->
<g id="node13" class="node">
<title>CALL_MergeBamOuts</title>
<ellipse fill="none" stroke="#000000" cx="772" cy="-250" rx="83.3857" ry="18"/>
<text text-anchor="middle" x="772" y="-246.3" font-family="Times,serif" font-size="14.00" fill="#000000">call MergeBamOuts</text>
</g>
<!-- CALL_MergeVCFs&#45;&gt;CALL_MergeBamOuts -->
<g id="edge8" class="edge">
<title>CALL_MergeVCFs&#45;&gt;CALL_MergeBamOuts</title>
<path fill="none" stroke="#000000" d="M729.0899,-304.2022C735.8724,-295.6348 744.1326,-285.2009 751.5877,-275.7839"/>
<polygon fill="#000000" stroke="#000000" points="754.4118,-277.8555 757.8747,-267.8425 748.9234,-273.5106 754.4118,-277.8555"/>
</g>
<!-- CALL_Filter&#45;&gt;CALL_FilterAlignmentArtifacts -->
<g id="edge17" class="edge">
<title>CALL_Filter&#45;&gt;CALL_FilterAlignmentArtifacts</title>
<path fill="none" stroke="#000000" d="M415.7756,-173.9628C486.6685,-167.1419 630.8817,-152.0921 752,-132 767.5433,-129.4216 784.1009,-126.2299 799.8649,-122.9759"/>
<polygon fill="#000000" stroke="#000000" points="801.0207,-126.3099 810.0909,-120.8343 799.5858,-119.4585 801.0207,-126.3099"/>
</g>
<!-- CALL_Filter&#45;&gt;CALL_Funcotate -->
<g id="edge10" class="edge">
<title>CALL_Filter&#45;&gt;CALL_Funcotate</title>
<path fill="none" stroke="#000000" d="M371.1134,-159.7623C369.9195,-135.201 367.7829,-91.2474 366.3783,-62.3541"/>
<polygon fill="#000000" stroke="#000000" points="369.8609,-61.9079 365.8794,-52.0896 362.8691,-62.2478 369.8609,-61.9079"/>
</g>
<!-- CALL_NormalCramToBam -->
<g id="node10" class="node">
<title>CALL_NormalCramToBam</title>
<ellipse fill="none" stroke="#000000" cx="1555" cy="-466" rx="100.1823" ry="18"/>
<text text-anchor="middle" x="1555" y="-462.3" font-family="Times,serif" font-size="14.00" fill="#000000">call NormalCramToBam</text>
</g>
<!-- CONDITIONAL_8_EXPRESSION -->
<g id="node11" class="node">
<title>CONDITIONAL_8_EXPRESSION</title>
<polygon fill="none" stroke="#000000" stroke-dasharray="5,2" points="1928.6537,-322 1869.8269,-340 1752.1731,-340 1693.3463,-322 1752.1731,-304 1869.8269,-304 1928.6537,-322"/>
<text text-anchor="middle" x="1811" y="-318.3" font-family="Times,serif" font-size="14.00" fill="#000000">if (defined(normal_bam))</text>
</g>
<!-- CALL_NormalCramToBam&#45;&gt;CONDITIONAL_8_EXPRESSION -->
<g id="edge6" class="edge">
<title>CALL_NormalCramToBam&#45;&gt;CONDITIONAL_8_EXPRESSION</title>
<path fill="none" stroke="#000000" d="M1585.6253,-448.7733C1631.5733,-422.9275 1718.4324,-374.0693 1769.8653,-345.1383"/>
<polygon fill="#000000" stroke="#000000" points="1771.7301,-348.1051 1778.7299,-340.1519 1768.2982,-342.0041 1771.7301,-348.1051"/>
</g>
<!-- CALL_NormalCramToBam&#45;&gt;CALL_M2 -->
<g id="edge14" class="edge">
<title>CALL_NormalCramToBam&#45;&gt;CALL_M2</title>
<path fill="none" stroke="#000000" d="M1499.9078,-450.9206C1482.757,-446.7508 1463.7012,-442.6481 1446,-440 1313.6472,-420.1998 904.7719,-401.8625 763.5583,-395.9677"/>
<polygon fill="#000000" stroke="#000000" points="763.6047,-392.4667 753.4681,-395.5487 763.3142,-399.4607 763.6047,-392.4667"/>
</g>
<!-- CALL_M2&#45;&gt;CALL_MergeTumorPileups -->
<g id="edge16" class="edge">
<title>CALL_M2&#45;&gt;CALL_MergeTumorPileups</title>
<path fill="none" stroke="#000000" d="M753.5178,-392.4007C858.804,-387.8431 1149.8205,-373.9516 1244,-356 1262.0786,-352.554 1281.379,-347.081 1298.5895,-341.5245"/>
<polygon fill="#000000" stroke="#000000" points="1300.063,-344.7236 1308.4562,-338.258 1297.8629,-338.0783 1300.063,-344.7236"/>
</g>
<!-- CALL_M2&#45;&gt;CALL_MergeNormalPileups -->
<g id="edge23" class="edge">
<title>CALL_M2&#45;&gt;CALL_MergeNormalPileups</title>
<path fill="none" stroke="#000000" d="M753.5987,-393.3528C886.7511,-390.916 1326.2877,-381.1189 1465,-356 1483.0372,-352.7337 1502.2619,-347.2789 1519.3675,-341.6843"/>
<polygon fill="#000000" stroke="#000000" points="1520.8056,-344.8934 1529.1692,-338.3896 1518.5752,-338.2582 1520.8056,-344.8934"/>
</g>
<!-- CALL_M2&#45;&gt;CALL_MergeVCFs -->
<g id="edge7" class="edge">
<title>CALL_M2&#45;&gt;CALL_MergeVCFs</title>
<path fill="none" stroke="#000000" d="M715,-375.8314C715,-368.131 715,-358.9743 715,-350.4166"/>
<polygon fill="#000000" stroke="#000000" points="718.5001,-350.4132 715,-340.4133 711.5001,-350.4133 718.5001,-350.4132"/>
</g>
<!-- CALL_M2&#45;&gt;CALL_MergeBamOuts -->
<g id="edge12" class="edge">
<title>CALL_M2&#45;&gt;CALL_MergeBamOuts</title>
<path fill="none" stroke="#000000" d="M749.9684,-386.3123C766.3139,-380.7778 784.2798,-371.4618 794,-356 809.0547,-332.0526 798.8049,-299.6269 787.7999,-276.9681"/>
<polygon fill="#000000" stroke="#000000" points="790.815,-275.1792 783.1088,-267.9083 784.5989,-278.3979 790.815,-275.1792"/>
</g>
<!-- CALL_LearnReadOrientationModel -->
<g id="node14" class="node">
<title>CALL_LearnReadOrientationModel</title>
<ellipse fill="none" stroke="#000000" cx="349" cy="-322" rx="128.0773" ry="18"/>
<text text-anchor="middle" x="349" y="-318.3" font-family="Times,serif" font-size="14.00" fill="#000000">call LearnReadOrientationModel</text>
</g>
<!-- CALL_M2&#45;&gt;CALL_LearnReadOrientationModel -->
<g id="edge20" class="edge">
<title>CALL_M2&#45;&gt;CALL_LearnReadOrientationModel</title>
<path fill="none" stroke="#000000" d="M677.9484,-388.77C632.5266,-382.1475 553.2898,-369.9103 486,-356 463.9398,-351.4397 440.0584,-345.7706 418.5078,-340.3771"/>
<polygon fill="#000000" stroke="#000000" points="419.3376,-336.9768 408.7851,-337.9233 417.6246,-343.764 419.3376,-336.9768"/>
</g>
<!-- CALL_M2&#45;&gt;CALL_Funcotate -->
<g id="edge11" class="edge">
<title>CALL_M2&#45;&gt;CALL_Funcotate</title>
<path fill="none" stroke="#000000" d="M676.5923,-393.2079C535.2815,-390.1234 51.1702,-377.9846 27,-356 -8.2458,-323.9413 11,-297.6448 11,-250 11,-250 11,-250 11,-178 11,-169.8114 221.6289,-88.576 317.9451,-51.8568"/>
<polygon fill="#000000" stroke="#000000" points="319.3518,-55.0663 327.4509,-48.2359 316.86,-48.5248 319.3518,-55.0663"/>
</g>
<!-- CALL_MergeStats -->
<g id="node16" class="node">
<title>CALL_MergeStats</title>
<ellipse fill="none" stroke="#000000" cx="561" cy="-322" rx="66.0889" ry="18"/>
<text text-anchor="middle" x="561" y="-318.3" font-family="Times,serif" font-size="14.00" fill="#000000">call MergeStats</text>
</g>
<!-- CALL_M2&#45;&gt;CALL_MergeStats -->
<g id="edge18" class="edge">
<title>CALL_M2&#45;&gt;CALL_MergeStats</title>
<path fill="none" stroke="#000000" d="M687.8224,-381.2936C664.4955,-370.3875 630.4777,-354.4831 603.5449,-341.8911"/>
<polygon fill="#000000" stroke="#000000" points="604.8843,-338.6537 594.3431,-337.589 601.9195,-344.9949 604.8843,-338.6537"/>
</g>
<!-- CALL_LearnReadOrientationModel&#45;&gt;CALL_Filter -->
<g id="edge9" class="edge">
<title>CALL_LearnReadOrientationModel&#45;&gt;CALL_Filter</title>
<path fill="none" stroke="#000000" d="M335.7808,-303.7028C330.7285,-295.6242 325.5671,-285.7589 323,-276 317.1206,-253.6493 313.8199,-245.2096 323,-224 326.8802,-215.0353 333.4629,-207.0144 340.5656,-200.2788"/>
<polygon fill="#000000" stroke="#000000" points="343.1232,-202.6931 348.3735,-193.4906 338.5304,-197.4104 343.1232,-202.6931"/>
</g>
<!-- CALL_MergeStats&#45;&gt;CALL_Filter -->
<g id="edge21" class="edge">
<title>CALL_MergeStats&#45;&gt;CALL_Filter</title>
<path fill="none" stroke="#000000" d="M523.6842,-306.9896C512.6516,-302.9719 500.4582,-298.9351 489,-296 461.1109,-288.8559 379.7201,-297.8723 361,-276 344.4916,-256.7119 350.7992,-226.8867 359.0294,-205.2036"/>
<polygon fill="#000000" stroke="#000000" points="362.297,-206.4605 362.8711,-195.8812 355.825,-203.7934 362.297,-206.4605"/>
</g>
<!-- CONDITIONAL_2_EXPRESSION -->
<g id="node17" class="node">
<title>CONDITIONAL_2_EXPRESSION</title>
<polygon fill="none" stroke="#000000" stroke-dasharray="5,2" points="202.607,-322 161.8035,-340 80.1965,-340 39.393,-322 80.1965,-304 161.8035,-304 202.607,-322"/>
<text text-anchor="middle" x="121" y="-318.3" font-family="Times,serif" font-size="14.00" fill="#000000">if (run_ob_filter)</text>
</g>
<!-- CONDITIONAL_5_EXPRESSION -->
<g id="node18" class="node">
<title>CONDITIONAL_5_EXPRESSION</title>
<polygon fill="none" stroke="#000000" stroke-dasharray="5,2" points="1437.4302,-466 1272.2151,-484 941.7849,-484 776.5698,-466 941.7849,-448 1272.2151,-448 1437.4302,-466"/>
<text text-anchor="middle" x="1107" y="-462.3" font-family="Times,serif" font-size="14.00" fill="#000000">if ((basename(normal_or_empty) != basename(normal_or_empty, &quot;.cram&quot;)))</text>
</g>
<!-- CONDITIONAL_6_EXPRESSION -->
<g id="node19" class="node">
<title>CONDITIONAL_6_EXPRESSION</title>
<polygon fill="none" stroke="#000000" stroke-dasharray="5,2" points="286.176,-34 218.588,-52 83.412,-52 15.824,-34 83.412,-16 218.588,-16 286.176,-34"/>
<text text-anchor="middle" x="151" y="-30.3" font-family="Times,serif" font-size="14.00" fill="#000000">if (run_funcotator_or_default)</text>
</g>
<!-- CONDITIONAL_7_EXPRESSION -->
<g id="node20" class="node">
<title>CONDITIONAL_7_EXPRESSION</title>
<polygon fill="none" stroke="#000000" stroke-dasharray="5,2" points="1234.7318,-322 1145.8659,-340 968.1341,-340 879.2682,-322 968.1341,-304 1145.8659,-304 1234.7318,-322"/>
<text text-anchor="middle" x="1057" y="-318.3" font-family="Times,serif" font-size="14.00" fill="#000000">if (defined(variants_for_contamination))</text>
</g>
<!-- CONDITIONAL_1_EXPRESSION -->
<g id="node21" class="node">
<title>CONDITIONAL_1_EXPRESSION</title>
<polygon fill="none" stroke="#000000" stroke-dasharray="5,2" points="2249.3716,-466 2106.6858,-484 1821.3142,-484 1678.6284,-466 1821.3142,-448 2106.6858,-448 2249.3716,-466"/>
<text text-anchor="middle" x="1964" y="-462.3" font-family="Times,serif" font-size="14.00" fill="#000000">if ((basename(tumor_reads) != basename(tumor_reads, &quot;.cram&quot;)))</text>
</g>
<!-- CONDITIONAL_4_EXPRESSION -->
<g id="node22" class="node">
<title>CONDITIONAL_4_EXPRESSION</title>
<polygon fill="none" stroke="#000000" stroke-dasharray="5,2" points="742.7279,-106 655.3639,-124 480.6361,-124 393.2721,-106 480.6361,-88 655.3639,-88 742.7279,-106"/>
<text text-anchor="middle" x="568" y="-102.3" font-family="Times,serif" font-size="14.00" fill="#000000">if (defined(realignment_index_bundle))</text>
</g>
<!-- CONDITIONAL_0_EXPRESSION -->
<g id="node23" class="node">
<title>CONDITIONAL_0_EXPRESSION</title>
<polygon fill="none" stroke="#000000" stroke-dasharray="5,2" points="670.6741,-250 603.837,-268 470.163,-268 403.3259,-250 470.163,-232 603.837,-232 670.6741,-250"/>
<text text-anchor="middle" x="537" y="-246.3" font-family="Times,serif" font-size="14.00" fill="#000000">if (make_bamout_or_default)</text>
</g>
</g>
</svg>
