<?xml version="1.0" encoding="UTF-8" standalone="no"?>
<!DOCTYPE svg PUBLIC "-//W3C//DTD SVG 1.1//EN"
 "http://www.w3.org/Graphics/SVG/1.1/DTD/svg11.dtd">
<!-- Generated by graphviz version 2.40.1 (20161225.0304)
 -->
<!-- Title: Mutect2_Panel Pages: 1 -->
<svg width="760pt" height="284pt"
 viewBox="0.00 0.00 760.00 284.00" xmlns="http://www.w3.org/2000/svg" xmlns:xlink="http://www.w3.org/1999/xlink">
<g id="graph0" class="graph" transform="scale(1 1) rotate(0) translate(4 280)">
<title>Mutect2_Panel</title>
<polygon fill="#ffffff" stroke="transparent" points="-4,4 -4,-280 756,-280 756,4 -4,4"/>
<g id="clust1" class="cluster">
<title>cluster_0</title>
<polygon fill="#ffffff" stroke="#000000" points="314,-136 314,-268 744,-268 744,-136 314,-136"/>
</g>
<g id="clust2" class="cluster">
<title>cluster_1</title>
<polygon fill="#ffffff" stroke="#000000" points="8,-64 8,-192 306,-192 306,-64 8,-64"/>
</g>
<!-- CALL_Mutect2 -->
<g id="node1" class="node">
<title>CALL_Mutect2</title>
<ellipse fill="none" stroke="#000000" cx="455" cy="-166" rx="55.7973" ry="18"/>
<ellipse fill="none" stroke="#000000" cx="455" cy="-166" rx="59.7903" ry="22"/>
<text text-anchor="middle" x="455" y="-162.3" font-family="Times,serif" font-size="14.00" fill="#000000">call Mutect2</text>
</g>
<!-- CALL_CreatePanel -->
<g id="node2" class="node">
<title>CALL_CreatePanel</title>
<ellipse fill="none" stroke="#000000" cx="193" cy="-90" rx="68.4888" ry="18"/>
<text text-anchor="middle" x="193" y="-86.3" font-family="Times,serif" font-size="14.00" fill="#000000">call CreatePanel</text>
</g>
<!-- CALL_Mutect2&#45;&gt;CALL_CreatePanel -->
<g id="edge1" class="edge">
<title>CALL_Mutect2&#45;&gt;CALL_CreatePanel</title>
<path fill="none" stroke="#000000" d="M407.8571,-152.3249C363.2929,-139.398 296.3928,-119.9918 249.1027,-106.2741"/>
<polygon fill="#000000" stroke="#000000" points="249.9034,-102.8621 239.3242,-103.4376 247.9532,-109.585 249.9034,-102.8621"/>
</g>
<!-- CALL_MergeVCFs -->
<g id="node3" class="node">
<title>CALL_MergeVCFs</title>
<ellipse fill="none" stroke="#000000" cx="193" cy="-18" rx="69.5877" ry="18"/>
<text text-anchor="middle" x="193" y="-14.3" font-family="Times,serif" font-size="14.00" fill="#000000">call MergeVCFs</text>
</g>
<!-- CALL_CreatePanel&#45;&gt;CALL_MergeVCFs -->
<g id="edge2" class="edge">
<title>CALL_CreatePanel&#45;&gt;CALL_MergeVCFs</title>
<path fill="none" stroke="#000000" d="M193,-71.8314C193,-64.131 193,-54.9743 193,-46.4166"/>
<polygon fill="#000000" stroke="#000000" points="196.5001,-46.4132 193,-36.4133 189.5001,-46.4133 196.5001,-46.4132"/>
</g>
<!-- SCATTER_1_VARIABLE_subintervals -->
<g id="node4" class="node">
<title>SCATTER_1_VARIABLE_subintervals</title>
<polygon fill="none" stroke="#000000" points="298.1838,-166 227.5919,-184 86.4081,-184 15.8162,-166 86.4081,-148 227.5919,-148 298.1838,-166"/>
<text text-anchor="middle" x="157" y="-162.3" font-family="Times,serif" font-size="14.00" fill="#000000">scatter over File as subintervals</text>
</g>
<!-- SCATTER_1_VARIABLE_subintervals&#45;&gt;CALL_CreatePanel -->
<g id="edge3" class="edge">
<title>SCATTER_1_VARIABLE_subintervals&#45;&gt;CALL_CreatePanel</title>
<path fill="none" stroke="#000000" d="M165.5315,-147.9891C169.8803,-138.8082 175.26,-127.451 180.1026,-117.2278"/>
<polygon fill="#000000" stroke="#000000" points="183.4119,-118.4174 184.5297,-107.8817 177.0857,-115.4207 183.4119,-118.4174"/>
</g>
<!-- SCATTER_0_VARIABLE_normal_bam -->
<g id="node5" class="node">
<title>SCATTER_0_VARIABLE_normal_bam</title>
<polygon fill="none" stroke="#000000" points="736.2699,-242 632.6349,-260 425.3651,-260 321.7301,-242 425.3651,-224 632.6349,-224 736.2699,-242"/>
<text text-anchor="middle" x="529" y="-238.3" font-family="Times,serif" font-size="14.00" fill="#000000">scatter over Pair[String, String] as normal_bam</text>
</g>
<!-- SCATTER_0_VARIABLE_normal_bam&#45;&gt;CALL_Mutect2 -->
<g id="edge4" class="edge">
<title>SCATTER_0_VARIABLE_normal_bam&#45;&gt;CALL_Mutect2</title>
<path fill="none" stroke="#000000" d="M511.463,-223.9891C502.8122,-215.1044 492.177,-204.1818 482.4784,-194.221"/>
<polygon fill="#000000" stroke="#000000" points="484.7765,-191.5642 475.2927,-186.8411 479.7612,-196.4476 484.7765,-191.5642"/>
</g>
<!-- CALL_SplitIntervals -->
<g id="node6" class="node">
<title>CALL_SplitIntervals</title>
<ellipse fill="none" stroke="#000000" cx="157" cy="-242" rx="73.387" ry="18"/>
<text text-anchor="middle" x="157" y="-238.3" font-family="Times,serif" font-size="14.00" fill="#000000">call SplitIntervals</text>
</g>
<!-- CALL_SplitIntervals&#45;&gt;SCATTER_1_VARIABLE_subintervals -->
<g id="edge5" class="edge">
<title>CALL_SplitIntervals&#45;&gt;SCATTER_1_VARIABLE_subintervals</title>
<path fill="none" stroke="#000000" d="M157,-223.9891C157,-215.1566 157,-204.3099 157,-194.3965"/>
<polygon fill="#000000" stroke="#000000" points="160.5001,-194.145 157,-184.145 153.5001,-194.1451 160.5001,-194.145"/>
</g>
</g>
</svg>
